<?xml version="1.0"?><svg width="1502.615" height="412.06674000000004" xmlns="http://www.w3.org/2000/svg">
 <title>blue eyes</title>

 <metadata id="metadata3447">image/svg+xml</metadata>
 <g>
  <title>Layer 1</title>
  <g id="layer1">
   <path id="svg_2" fill="#7f3f00" fill-rule="nonzero" stroke="#000000" stroke-width="1.2" stroke-linecap="round" stroke-miterlimit="4" d="m580.631042,242.0215a163.350784,160.837677 0 1 1 -326.701538,-81.311035a163.350784,160.837677 0 1 1 326.701538,81.311035z"/>
   <path fill="#7f3f00" fill-rule="nonzero" stroke="#000000" stroke-width="1.2" stroke-linecap="round" stroke-miterlimit="4" d="m1320.063232,244.809036a163.350784,160.837677 0 1 1 -326.701538,-81.311035a163.350784,160.837677 0 1 1 326.701538,81.311035z" id="path3185"/>
   <path fill="#000000" fill-rule="nonzero" stroke="#000000" stroke-width="1.2" stroke-linecap="round" stroke-miterlimit="4" d="m1234.721436,224.725555a73.771629,73.771629 0 1 1 -147.543457,-36.721313a73.771629,73.771629 0 1 1 147.543457,36.721313z" id="path3323"/>
   <path transform="rotate(20.5123, 1162.81, 203.048)" fill="#000000" fill-rule="evenodd" stroke="#000000" stroke-width="1.062261" stroke-miterlimit="4" id="path3170" d="m1076.079956,39.912899c-144.480957,71.976101 -202.633972,210.611103 -202.633972,210.611103c19.036011,-27.742996 41.988037,-52.270004 66.709045,-73.841995c-38.05304,59.472992 -55.119019,115.311005 -55.119019,115.311005l-27.166992,36.057983c3.263,9.105011 37.197998,24.320007 48.223999,-8.872986c111.906982,-336.894609 362.827026,-253.560905 456.236938,-208.431007c0.109985,0.052002 0.480103,0.409996 0.590088,0.461998c0.919922,0.983002 9.309937,3.877998 22.97998,11.644997c-2.300049,20.325996 -13.930054,141.342995 -110.710083,226.449989c-61.48999,54.068024 -187.269897,54.206024 -290.442932,50.087006c0,0 130.222961,25.781006 246.502991,-9.16098c136.060059,-40.889008 181.01001,-209.373016 185.829956,-261.734009c3.700073,-1.409004 6.550049,-3.321999 6.480103,-3.380005c-0.110107,-0.093994 62.059937,-33.012695 39.109985,-43.439796c-46.560059,-21.1506 -88.200073,-35.985302 -126.880005,-45.349899c-16.290039,-3.9454 -31.859985,-6.687202 -47.27002,-8.773401c55.199951,-10.069901 93.77002,-13.4685 96.959961,-15.0577c-0.169922,-0.0726 -0.189941,-0.3948 -0.579956,-0.4621c-5.550049,-0.9527 -41.5,-10.73567 -97.920044,-13.7818c-84.630005,-4.56935 -154.359985,13.497 -210.900024,41.661599l0,0l0,0z"/>
   <path fill="#ff0ff0" fill-opacity="0" fill-rule="nonzero" stroke="#000000" stroke-width="1.2" stroke-linecap="round" stroke-miterlimit="4" id="path3341" d="m146.223114,247.79422"/>
   <path fill="#000000" fill-rule="nonzero" stroke="#000000" stroke-width="1.2" stroke-linecap="round" stroke-miterlimit="4" id="path3343" d="m219.625,206.815079"/>
   <path transform="rotate(-21.4059, 407.46, 201.556)" fill="#000000" fill-rule="evenodd" stroke="#000000" stroke-width="1.062261" stroke-miterlimit="4" d="m494.187012,38.420399c144.485962,71.976604 202.638977,210.610607 202.638977,210.610607c-19.036011,-27.741989 -41.987976,-52.269012 -66.709961,-73.841003c38.053955,59.472992 55.118958,115.311005 55.119995,115.309998l27.165955,36.058014c-3.261963,9.10498 -37.19696,24.320984 -48.222961,-8.873016c-111.906006,-336.894098 -362.825012,-253.560387 -456.242035,-208.431c-0.108002,0.053001 -0.472992,0.410011 -0.580994,0.462013c-0.919998,0.982986 -9.313004,3.878998 -22.985001,11.645988c2.304001,20.324997 13.931992,141.342987 110.714005,226.449005c61.484985,54.069 187.261993,54.205994 290.438995,50.087006c0,0 -130.221008,25.780975 -246.500031,-9.161011c-136.064972,-40.888 -181.009964,-209.371994 -185.828964,-261.734009c-3.706009,-1.408989 -6.553009,-3.320992 -6.483002,-3.37899c0.113998,-0.094009 -62.062004,-33.013199 -39.109009,-43.4403c46.557999,-21.1506 88.201996,-35.98531 126.876007,-45.349899c16.293991,-3.945402 31.865005,-6.687201 47.274979,-8.773401c-55.204987,-10.0699 -93.773987,-13.4685 -96.964981,-15.0577c0.177002,-0.072599 0.188995,-0.3948 0.580994,-0.4621c5.553009,-0.95267 41.506012,-10.73566 97.925034,-13.78179c84.627991,-4.56936 154.353943,13.49699 210.891998,41.661589l0,0z" id="path3345"/>
   <path fill="#ffffff" fill-rule="nonzero" stroke="#000000" stroke-width="0" stroke-linecap="round" stroke-miterlimit="4" id="path3347" d="m235.049973,200.2117"/>
   <path fill="none" fill-rule="evenodd" stroke="#0000ff" stroke-width="1px" stroke-opacity="0" id="path3359" d="m315.666687,268.316742l-9.027832,36.805573l30.555542,17.361084l18.055542,-8.333313l11.111206,15.972229l-5.555542,14.583313l0,14.583344"/>
   <path id="svg_3" fill="#000000" fill-rule="nonzero" stroke="#000000" stroke-width="1.2" stroke-linecap="round" stroke-miterlimit="4" d="m492.546326,213.755966a73.771629,73.771629 0 1 1 -147.543457,-36.721313a73.771629,73.771629 0 1 1 147.543457,36.721313z"/>
  </g>
 </g>
</svg>